<mxfile host="app.diagrams.net" modified="2023-10-09T11:17:22.721Z" agent="Mozilla/5.0 (Macintosh; Intel Mac OS X 10_15_7) AppleWebKit/537.36 (KHTML, like Gecko) Chrome/117.0.0.0 Safari/537.36" etag="kI5TLUuNEsJQ1WQlbKwY" version="22.0.4" type="device">
  <diagram name="Page-1" id="l1voRVQeGfXjPcgIDQeE">
    <mxGraphModel dx="1674" dy="790" grid="1" gridSize="10" guides="1" tooltips="1" connect="1" arrows="1" fold="1" page="1" pageScale="1" pageWidth="827" pageHeight="1169" math="0" shadow="0">
      <root>
        <mxCell id="0" />
        <mxCell id="1" parent="0" />
        <mxCell id="OyHYAoL5QfuY5A7IuQTg-6" value="" style="edgeStyle=orthogonalEdgeStyle;rounded=0;orthogonalLoop=1;jettySize=auto;html=1;" edge="1" parent="1" source="OyHYAoL5QfuY5A7IuQTg-1" target="OyHYAoL5QfuY5A7IuQTg-5">
          <mxGeometry relative="1" as="geometry" />
        </mxCell>
        <mxCell id="OyHYAoL5QfuY5A7IuQTg-1" value="ENTER 1ST BALL SCORE" style="rounded=0;whiteSpace=wrap;html=1;" vertex="1" parent="1">
          <mxGeometry x="70" y="140" width="120" height="60" as="geometry" />
        </mxCell>
        <mxCell id="OyHYAoL5QfuY5A7IuQTg-4" style="edgeStyle=orthogonalEdgeStyle;rounded=0;orthogonalLoop=1;jettySize=auto;html=1;exitX=0.5;exitY=1;exitDx=0;exitDy=0;entryX=0.5;entryY=0;entryDx=0;entryDy=0;" edge="1" parent="1" source="OyHYAoL5QfuY5A7IuQTg-2" target="OyHYAoL5QfuY5A7IuQTg-1">
          <mxGeometry relative="1" as="geometry" />
        </mxCell>
        <mxCell id="OyHYAoL5QfuY5A7IuQTg-2" value="START" style="rounded=1;whiteSpace=wrap;html=1;" vertex="1" parent="1">
          <mxGeometry x="70" y="30" width="120" height="60" as="geometry" />
        </mxCell>
        <mxCell id="OyHYAoL5QfuY5A7IuQTg-7" style="edgeStyle=orthogonalEdgeStyle;rounded=0;orthogonalLoop=1;jettySize=auto;html=1;exitX=0.5;exitY=1;exitDx=0;exitDy=0;" edge="1" parent="1" source="OyHYAoL5QfuY5A7IuQTg-5" target="OyHYAoL5QfuY5A7IuQTg-8">
          <mxGeometry relative="1" as="geometry">
            <mxPoint x="130" y="430" as="targetPoint" />
          </mxGeometry>
        </mxCell>
        <mxCell id="OyHYAoL5QfuY5A7IuQTg-11" value="NO" style="edgeLabel;html=1;align=center;verticalAlign=middle;resizable=0;points=[];" vertex="1" connectable="0" parent="OyHYAoL5QfuY5A7IuQTg-7">
          <mxGeometry x="-0.76" y="2" relative="1" as="geometry">
            <mxPoint x="8" y="4" as="offset" />
          </mxGeometry>
        </mxCell>
        <mxCell id="OyHYAoL5QfuY5A7IuQTg-13" value="" style="edgeStyle=orthogonalEdgeStyle;rounded=0;orthogonalLoop=1;jettySize=auto;html=1;" edge="1" parent="1" source="OyHYAoL5QfuY5A7IuQTg-5" target="OyHYAoL5QfuY5A7IuQTg-12">
          <mxGeometry relative="1" as="geometry" />
        </mxCell>
        <mxCell id="OyHYAoL5QfuY5A7IuQTg-15" value="YES" style="edgeLabel;html=1;align=center;verticalAlign=middle;resizable=0;points=[];" vertex="1" connectable="0" parent="OyHYAoL5QfuY5A7IuQTg-13">
          <mxGeometry x="0.1778" relative="1" as="geometry">
            <mxPoint as="offset" />
          </mxGeometry>
        </mxCell>
        <mxCell id="OyHYAoL5QfuY5A7IuQTg-5" value="IS SCORE &amp;gt;10&lt;br&gt;OR &amp;lt;0&amp;nbsp;&lt;br&gt;?" style="rhombus;whiteSpace=wrap;html=1;rounded=0;" vertex="1" parent="1">
          <mxGeometry x="60" y="230" width="140" height="140" as="geometry" />
        </mxCell>
        <mxCell id="OyHYAoL5QfuY5A7IuQTg-10" style="edgeStyle=orthogonalEdgeStyle;rounded=0;orthogonalLoop=1;jettySize=auto;html=1;exitX=0.5;exitY=1;exitDx=0;exitDy=0;entryX=0.5;entryY=0;entryDx=0;entryDy=0;" edge="1" parent="1" source="OyHYAoL5QfuY5A7IuQTg-8" target="OyHYAoL5QfuY5A7IuQTg-9">
          <mxGeometry relative="1" as="geometry" />
        </mxCell>
        <mxCell id="OyHYAoL5QfuY5A7IuQTg-8" value="ACCEPT SCORE" style="rounded=0;whiteSpace=wrap;html=1;" vertex="1" parent="1">
          <mxGeometry x="70" y="400" width="120" height="60" as="geometry" />
        </mxCell>
        <mxCell id="OyHYAoL5QfuY5A7IuQTg-9" value="END" style="rounded=1;whiteSpace=wrap;html=1;" vertex="1" parent="1">
          <mxGeometry x="70" y="500" width="120" height="60" as="geometry" />
        </mxCell>
        <mxCell id="OyHYAoL5QfuY5A7IuQTg-12" value="USER RE-ENTERS SCORE" style="whiteSpace=wrap;html=1;rounded=0;" vertex="1" parent="1">
          <mxGeometry x="290" y="270" width="120" height="60" as="geometry" />
        </mxCell>
        <mxCell id="OyHYAoL5QfuY5A7IuQTg-17" value="" style="curved=1;endArrow=classic;html=1;rounded=0;exitX=1;exitY=0.5;exitDx=0;exitDy=0;entryX=1;entryY=1;entryDx=0;entryDy=0;" edge="1" parent="1" source="OyHYAoL5QfuY5A7IuQTg-12" target="OyHYAoL5QfuY5A7IuQTg-5">
          <mxGeometry width="50" height="50" relative="1" as="geometry">
            <mxPoint x="500" y="310" as="sourcePoint" />
            <mxPoint x="390" y="430" as="targetPoint" />
            <Array as="points">
              <mxPoint x="510" y="340" />
              <mxPoint x="440" y="430" />
            </Array>
          </mxGeometry>
        </mxCell>
      </root>
    </mxGraphModel>
  </diagram>
</mxfile>
